<svg id="Capa_1" enable-background="new 0 0 512 512" height="512" viewBox="0 0 512 512" width="512" xmlns="http://www.w3.org/2000/svg"><g><path d="m484.828 0h-58.937c-5.826 0-11.121 3.373-13.593 8.638l-51.801 110.478h33.172c14.608-31.146 6.048-12.887 41.761-89.087h49.398c8.288 0 15.015-6.727 15.015-15.015s-6.726-15.014-15.015-15.014z"/><path d="m213.143 264.088c5.455 1.291 9.74 5.505 11.101 10.941 7.357 29.208 29.999 50.92 57.526 56.795v150.147h-95.019c-8.085 0-15.041 6.213-15.422 14.289-.406 8.622 6.465 15.741 14.998 15.741h220.501c8.085 0 15.041-6.213 15.422-14.289.406-8.622-6.465-15.741-14.998-15.741h-95.452v-150.147c27.537-5.876 50.169-27.587 57.536-56.795 1.361-5.435 5.645-9.649 11.101-10.941 49.43-11.687 74.104-53.841 81.173-103.537.857-6.025-3.829-11.405-9.914-11.405h-309.822c-6.08 0-10.763 5.37-9.916 11.39 7.069 50.295 31.48 91.783 81.185 103.552z"/><path d="m40.391 187.701 38.531-38.555h-66.765c1.831 12.679 6 25.083 12.498 36.513 3.247 5.711 11.092 6.689 15.736 2.042z"/><path d="m31.696 71.86c-10.6 14.184-17.117 30.48-19.539 47.256h66.735z"/><path d="m100.093 97.846v-66.706c-16.756 2.422-33.012 8.919-47.166 19.489z"/><path d="m130.122 31.13v66.795l38.561-38.586c4.644-4.647 3.661-12.492-2.053-15.735-11.428-6.486-23.831-10.643-36.508-12.474z"/></g></svg>