<svg id="solid" enable-background="new 0 0 512 512" height="512" viewBox="0 0 512 512" width="512" xmlns="http://www.w3.org/2000/svg"><g><g><path d="m232.658 101.946 18.904-12.603c2.688-1.792 6.188-1.792 8.875 0l18.904 12.603 24.203-21.178c-2.474-14.074-14.76-24.768-29.544-24.768h-36c-14.784 0-27.07 10.694-29.545 24.768z"/><path d="m304 162v-60.37l-18.732 16.391c-1.498 1.312-3.379 1.979-5.27 1.979-1.54 0-3.085-.443-4.436-1.344l-19.562-13.041-19.562 13.042c-3.01 2.006-6.988 1.743-9.705-.636l-18.733-16.391v60.37c0 13.891 9.441 25.577 22.257 28.991l-24.761 33.014 16.991 22.491c8.01 10.603 20.225 16.683 33.513 16.683s25.503-6.081 33.513-16.683l16.991-22.491-24.761-33.014c12.816-3.414 22.257-15.1 22.257-28.991z"/></g><path d="m444 384c-11.046 0-20 8.954-20 20 0-11.046-8.954-20-20-20h-28v32h96v-32z"/><path d="m86.155 137.906 30.771-25.556-10.223-12.309-30.771 25.556-10.222-12.308 30.77-25.557-10.222-12.308-36.925 30.667c-3.398 2.823-3.866 7.867-1.043 11.266l27.019 32.532c-3.809 1.217-7.457 3.217-10.694 5.906-11.877 9.864-14.661 26.172-6.206 36.353 4.157 5.006 10.534 7.852 17.557 7.852.159 0 .318-.001.479-.004 6.646-.122 13.336-2.706 18.838-7.275 11.877-9.864 14.661-26.171 6.206-36.352z"/><path d="m343.856 98.945c-2.627-46.181-41.029-82.945-87.856-82.945s-85.229 36.764-87.856 82.945c-4.901 3.219-8.144 8.766-8.144 15.055v28c0 9.925 8.075 18 18 18h14v-64h-7.558c3.992-35.95 34.561-64 71.558-64s67.566 28.05 71.558 64h-7.558v64h14c9.925 0 18-8.075 18-18v-28c0-6.289-3.243-11.836-8.144-15.055z"/><g><path d="m200 444c0 6.617 5.383 12 12 12h88c6.617 0 12-5.383 12-12v-12h-112z"/><path d="m328 432v12c0 15.464-12.536 28-28 28h-88c-15.464 0-28-12.536-28-28v-12h-158c-5.523 0-10 4.477-10 10v44c0 5.523 4.477 10 10 10h460c5.523 0 10-4.477 10-10v-44c0-5.523-4.477-10-10-10zm-264 40h-16v-16h16zm64 0h-48v-16h48zm32 0h-16v-16h16zm208 0h-16v-16h16zm64 0h-48v-16h48zm32 0h-16v-16h16z"/></g><g><path d="m150.998 376h24.602c-1.853-9.129-9.924-16-19.6-16h-11.208c2.783 4.205 4.802 8.983 5.836 14.155z"/><path d="m357.274 362.599c-6.155-8.461-8.523-18.792-6.669-29.09l15.163-84.168-41.621-22.917c-.269.855-.685 1.675-1.248 2.421l-10.899 14.427v76.728h8v16h-32v-16h8v-56.796c-10.697 10.245-24.842 15.975-40 15.975-15.157 0-29.302-5.729-40-15.974v56.795h8v16h-32v-16h8v-76.728l-10.899-14.428c-.563-.746-.979-1.566-1.248-2.421l-64.18 35.338c-12.135 6.68-19.673 19.436-19.673 33.288v38.951h7.406c9.678 0 18.815 2.924 26.468 8h18.126c18.566 0 34.065 13.384 37.355 31.011 14.429 3.303 26.121 14.429 29.835 29.289l3.426 13.7h21.384v-16h16v16h24v-16h16v16h24v-16h16v16h14v-34c0-4.418 3.582-8 8-8h4.493c-5.167-2.673-9.679-6.537-13.219-11.401z"/><path d="m203.787 407.149c-2.225-8.903-10.225-15.149-19.402-15.149h-128.77c-9.177 0-17.177 6.246-19.403 15.149l-2.212 8.851h172z"/><path d="m140.799 376c-2.849-13.962-15.133-24-29.394-24h-14.811c-14.261 0-26.544 10.038-29.394 24z"/></g><g><path d="m435.057 211.151.591-15.478-40.308-8.958-2.704 15.009z"/><path d="m440.622 128.324-11.891-1.613 6.45-47.565c1.188-8.756-4.948-16.818-13.705-18.005s-16.817 4.948-18.005 13.705l-6.45 47.565-4.838 35.674c-.582 4.292.244 8.451 2.124 12.01l51.204 11.379c5.311-2.961 9.212-8.299 10.092-14.789l2.15-15.855c1.485-10.945-6.185-21.022-17.131-22.506z"/><path d="m389.797 217.484-21.477 119.215c-2.019 11.206 5.712 21.834 16.996 23.364l22.021 2.986c11.283 1.53 21.565-6.655 22.604-17.994l4.494-117.652z"/></g></g></svg>