<svg id="Layer_1" enable-background="new 0 0 512.073 512.073" height="512" viewBox="0 0 512.073 512.073" width="512" xmlns="http://www.w3.org/2000/svg"><g><g><path d="m447.125 192.236v32.296c20.996 10.505 34.947 32.214 34.947 56.914 0 35.097-28.554 63.65-63.651 63.65h-7.762c-7.949 10.929-17.024 20.987-27.058 30h34.821c51.64 0 93.651-42.012 93.651-93.651 0-41.368-26.652-77.063-64.948-89.209z"/><path d="m407.621 174.534c-21.681-7.582-38.813-24.935-46.095-46.754-1.938-5.808-7.368-9.728-13.492-9.728h-183.924c-6.123 0-11.553 3.92-13.492 9.728-7.282 21.819-24.414 39.172-46.094 46.754-5.698 1.993-9.504 7.379-9.504 13.415v43.459c0 89.024 71.573 162.363 160.596 162.611 89.014.248 161.51-72.095 161.51-161.052v-45.017c-.001-6.037-3.807-11.423-9.505-13.416zm-115.886 163.81h-71.398c-8.284 0-15-6.716-15-15s6.716-15 15-15h71.398c8.284 0 15 6.716 15 15s-6.716 15-15 15zm22.444-67.977h-116.213c-8.284 0-15-6.716-15-15s6.716-15 15-15h116.213c8.284 0 15 6.716 15 15s-6.716 15-15 15z"/><path d="m101.486 345.096h-7.836c-35.097 0-63.65-28.554-63.65-63.651 0-24.687 13.981-46.405 35.02-56.931v-32.299c-38.337 12.18-65.02 47.888-65.02 89.231 0 51.639 42.011 93.65 93.65 93.65h34.894c-10.034-9.013-19.109-19.071-27.058-30z"/></g></g></svg>