<svg id="Layer_1" enable-background="new 0 0 512.519 512.519" height="512" viewBox="0 0 512.519 512.519" width="512" xmlns="http://www.w3.org/2000/svg"><g><ellipse cx="308.568" cy="42.184" rx="42.184" ry="42.184" transform="matrix(.987 -.16 .16 .987 -2.773 49.972)"/><path d="m288.222 97.907v14.371c0 2.236 2.177 3.825 4.307 3.144l16.889-5.401 16.889 5.401c2.13.681 4.307-.908 4.307-3.144v-14.371c0-2.135-2.122-3.843-4.307-3.144-7.665 2.451-12.003 3.839-16.889 5.402-4.89-1.564-9.237-2.954-16.889-5.402-2.188-.7-4.307 1.015-4.307 3.144z"/><path d="m117.83 177.011c-3.088 0-5.84 2.24-6.178 5.309-.149 1.354.164 2.621.788 3.684h-2.496c-5.304 0-9.935 4.003-10.277 9.295-.375 5.8 4.217 10.621 9.936 10.621h75.13c5.304 0 9.935-4.003 10.277-9.295.375-5.8-4.217-10.621-9.936-10.621h-2.261c.624-1.063.937-2.331.788-3.684-.338-3.069-3.09-5.309-6.178-5.309h-3.408v-23.579c5.888-2.37 10.05-8.125 10.05-14.862v-29.868c0-2.497-2.024-4.521-4.521-4.521h-23.008c-2.497 0-4.521 2.024-4.521 4.521v29.868c0 6.736 4.162 12.492 10.05 14.862v23.579h-3.408c-3.088 0-5.84 2.24-6.178 5.309-.149 1.354.164 2.621.788 3.684h-11.283c.624-1.063.937-2.331.788-3.684-.338-3.069-3.09-5.309-6.178-5.309h-3.408v-23.579c5.888-2.37 10.05-8.125 10.05-14.862v-29.868c0-2.497-2.024-4.521-4.521-4.521h-23.008c-2.497 0-4.521 2.024-4.521 4.521v29.868c0 6.736 4.162 12.492 10.05 14.862v23.579z"/><path d="m185.074 216.874h-45.984c-.043.541-.083 1.083-.083 1.635 0 11.24 9.11 20.353 20.351 20.354l66.824.005h.001c11.232 0 20.352-9.113 20.352-20.352v-72.602c.037-4.011 4.267-7.394 8.479-7.394v349.578c0 13.488 11.153 24.423 24.641 24.423s24.422-10.935 24.422-24.423v-195.229h10.55v195.228c0 13.488 10.934 24.423 24.422 24.423s24.468-10.935 24.468-24.423c-.006-7.231.027-217.849 0-249.229h29.005c11.24 0 20.352-9.112 20.352-20.352v-72.675c0-.034 0-.068 0-.102-.132-26.425-21.904-47.924-48.53-47.924h-26.118c-1.477 7.937-10.488 51.93-28.744 51.93-18.257 0-27.267-43.993-28.744-51.93h-26.376c-26.627 0-48.397 21.499-48.529 47.924v.102 47.684c1.462 12.582-8.369 23.349-20.759 23.349zm178.444-78.355c4.211 0 8.613 3.381 8.653 7.391v52.254h-8.653z"/></g></svg>