<svg id="Capa_1" enable-background="new 0 0 512 512" height="512" viewBox="0 0 512 512" width="512" xmlns="http://www.w3.org/2000/svg"><g><path d="m46.38 0v67.718h56.39v29.942h-56.39v56.719h56.39v29.942h-56.39v56.709h56.39v29.942h-56.39v56.709h56.39v29.942h-56.39v56.719h56.39v29.942h-56.39v67.716h445.62v-512zm165.11 425.703-43.67-43.583 21.213-21.172 22.457 22.411 48.518-48.423 21.213 21.172zm0-126.146-43.669-43.584 21.213-21.172 22.456 22.412 48.518-48.424 21.213 21.172zm0-126.146-43.669-43.584 21.213-21.172 22.456 22.412 48.518-48.424 21.213 21.172zm212.997 231.762h-97.284v-29.942h97.284zm0-134.116h-97.284v-29.942h97.284zm0-124.307h-97.284v-29.942h97.284z"/><path d="m20 327.68h26.38v29.942h-26.38z"/><path d="m20 414.341h26.38v29.942h-26.38z"/><path d="m20 154.378h26.38v29.942h-26.38z"/><path d="m20 241.029h26.38v29.942h-26.38z"/><path d="m20 67.718h26.38v29.942h-26.38z"/></g></svg>